<svg width="356" height="126" viewBox="0 0 356 126" fill="none" xmlns="http://www.w3.org/2000/svg">
<g clip-path="url(#clip0_8_1803)">
<path d="M40.6828 124.2H35.5974V126H40.6828V124.2Z" fill="#100F10"/>
<path d="M356 122.4H350.915V124.2H356V122.4Z" fill="#252526"/>
<path d="M330.569 122.4H325.484V124.2H330.569V122.4Z" fill="white"/>
<path d="M30.5121 122.4H25.4267V124.2H30.5121V122.4Z" fill="white"/>
<path d="M5.08535 122.4H0V124.2H5.08535V122.4Z" fill="#252526"/>
<path d="M335.654 118.801H330.569V120.6H335.654V118.801Z" fill="#888F95"/>
<path d="M25.4267 118.801H20.3414V120.6H25.4267V118.801Z" fill="#899096"/>
<path d="M81.3698 111.601H76.2845V113.401H81.3698V111.601Z" fill="white"/>
<path d="M71.1992 109.801H66.1138V111.601H71.1992V109.801Z" fill="#202323"/>
<path d="M172.915 108.002H167.829V109.801H172.915V108.002Z" fill="white"/>
<path d="M55.9431 44.9988H50.8578V46.7987H55.9431V44.9988Z" fill="#242526"/>
<path d="M356 21.6009H350.915V23.4008H356V21.6009Z" fill="#100F10"/>
<path d="M254.284 21.6009H249.199V23.4008H254.284V21.6009Z" fill="white"/>
<path d="M5.08535 19.8011H0V21.6009H5.08535V19.8011Z" fill="#252526"/>
<path d="M259.37 18.0013H254.284V19.8011H259.37V18.0013Z" fill="white"/>
<path d="M213.602 18.0013H208.516V19.8011H213.602V18.0013Z" fill="white"/>
<path d="M249.199 16.1986H244.114V17.9984H249.199V16.1986Z" fill="white"/>
<path d="M289.886 23.4008V21.6009V19.8011V18.0013H284.801V16.1986H279.715H274.626H269.541V18.0013H264.455V19.8011H259.37H254.284V21.6009H259.37V23.4008H254.284V25.2006H249.199V23.4008H244.114V21.6009V19.8011H239.028V18.0013V16.1986H233.943H228.858V18.0013H223.772V19.8011H218.687V21.6009H213.602V23.4008H208.516H203.431V21.6009H198.341V19.8011H193.256H188.171H183.085H178V18.0013H172.915V19.8011H167.829H162.744H157.659H152.569H147.484H142.398H137.313H132.228H127.142H122.057H116.972H111.886H106.801V21.6009V23.4008H101.716V25.2006H96.6302V27.0004H91.5405V28.8003H86.4552H81.3698V27.0004V25.2006H76.2845V23.4008V21.6009H71.1991V19.8011H66.1138V21.6009V23.4008V25.2006V27.0004V28.8003V30.6001V32.4V34.1998V35.9996V37.7995H61.0285V39.5993V41.3991V43.199V44.9988V46.7986V48.6013V50.4012V52.201V54.0008V55.8007V57.6005V59.4003V61.2002V63V64.7999V66.5997V68.3995V70.1994V71.9992V73.799V75.5989V77.4016V79.2014V81.0012V82.8011V84.6009V86.4007V88.2006V90.0004V91.8002V93.6001V95.3999V97.1998V98.9996V100.799V102.602V104.399H66.1138V102.602H71.1991V100.799H76.2845H81.3698H86.4552H91.5405H96.6302H101.716H106.801V102.602H111.886V104.399H116.972H122.057V106.199H127.142H132.228H137.313H142.398H147.484H152.569H157.659V104.399H162.744H167.829H172.915H178H183.085H188.171H193.256H198.341H203.431H208.516V102.602H213.602V100.799H218.687H223.772H228.858H233.943V102.602V104.399H239.028H244.114H249.199H254.284V102.602V100.799H259.37V98.9996V97.1998H264.455V95.3999H269.541V97.1998H274.626V98.9996V100.799H279.715V102.602V104.399H284.801H289.886V102.602V100.799V98.9996V97.1998V95.3999V93.6001V91.8002V90.0004H294.972V88.2006V86.4007V84.6009V82.8011V81.0012V79.2014V77.4016V75.5989V73.799V71.9992V70.1994V68.3995V66.5997V64.7999V63V61.2002V59.4003V57.6005V55.8007V54.0008V52.201V50.4012V48.6013V46.7986V44.9988V43.199V41.3991V39.5993V37.7995V35.9996V34.1998V32.4V30.6001V28.8003V27.0004V25.2006V23.4008H289.886Z" fill="white"/>
<path d="M91.5405 19.8011H86.4552V21.6009H91.5405V19.8011Z" fill="white"/>
<path d="M96.6259 16.1986H91.5405V17.9984H96.6259V16.1986Z" fill="#90979E"/>
<path d="M71.1992 14.3987H66.1138V16.1985H71.1992V14.3987Z" fill="white"/>
<path d="M66.1138 104.399H61.0284V102.602V100.799V98.9996V97.1997V95.3999V93.6001V91.8002V90.0004V88.2006V86.4007V84.6009V82.8011V81.0012V79.2014V77.4015V75.5989V73.799V71.9992V70.1993V68.3995V66.5997V64.7998V63V61.2002V59.4003V57.6005V55.8007V54.0008V52.201V50.4011V48.6013V46.7986V44.9988V43.1989V41.3991V39.5993V37.7994H66.1138V35.9996V34.1998V32.3999V30.6001V28.8003V27.0004V25.2006V23.4007V21.6009V19.8011H71.1991V21.6009H76.2845V23.4007V25.2006H81.3698V27.0004V28.8003H86.4552H91.5405V27.0004H96.6302V25.2006H101.716V23.4007H106.801V21.6009V19.8011H111.886H116.972H122.057H127.142H132.228H137.313H142.398H147.484H152.569H157.659H162.744H167.829H172.915V18.0012H178V19.8011H183.085H188.171H193.256H198.341V21.6009H203.431V23.4007H208.516H213.602V21.6009H218.687V19.8011H223.772V18.0012H228.858V16.1985H233.943H239.028V18.0012V19.8011H244.114V21.6009V23.4007H249.199V21.6009V19.8011V18.0012H244.114V16.1985V14.3987H239.028H233.943H228.858H223.772H218.687H213.602V16.1985V18.0012V19.8011H208.516V18.0012V16.1985H203.431V14.3987H198.341H193.256H188.171H183.085H178H172.915H167.829H162.744H157.659H152.569H147.484H142.398H137.313H132.228H127.142H122.057H116.972H111.886H106.801H101.716V16.1985H96.6302V18.0012V19.8011H91.5405V21.6009H86.4552V19.8011V18.0012V16.1985V14.3987H81.3698H76.2845H71.1991V16.1985H66.1138H61.0284V14.3987H55.9431V16.1985V18.0012V19.8011V21.6009V23.4007V25.2006V27.0004V28.8003V30.6001V32.3999V34.1998V35.9996V37.7994V39.5993V41.3991V43.1989V44.9988V46.7986V48.6013V50.4011V52.201V54.0008V55.8007V57.6005V59.4003V61.2002V63V64.7998V66.5997V68.3995V70.1993V71.9992V73.799V75.5989V77.4015V79.2014V81.0012V82.8011V84.6009V86.4007V88.2006V90.0004V91.8002V93.6001V95.3999V97.1997V98.9996V100.799V102.602V104.399V106.199V108.002V109.801V111.601V113.401H61.0284H66.1138V111.601V109.801V108.002H71.1991V106.199V104.399V102.602H66.1138V104.399Z" fill="#DCDCDC"/>
<path d="M233.943 100.799H228.858H223.772H218.687H213.602V102.602H208.516V104.399H203.431H198.341H193.256H188.171H183.085H178H172.915H167.829H162.744H157.659V106.199H152.569H147.484H142.398H137.313H132.228H127.142H122.057V104.399H116.972H111.886V102.602H106.801V100.799H101.716H96.6302H91.5405H86.4552H81.3698H76.2845H71.1991V102.602H76.2845V104.399V106.199V108.002V109.801V111.601H81.3698V113.401H86.4552H91.5405H96.6302V111.601V109.801V108.002H101.716V109.801H106.801V111.601V113.401H111.886H116.972H122.057H127.142H132.228H137.313H142.398H147.484H152.569H157.659H162.744H167.829V111.601V109.801V108.002H172.915H178V109.801V111.601V113.401H183.085H188.171H193.256H198.341H203.431H208.516H213.602H218.687H223.772H228.858V111.601V109.801V108.002V106.199V104.399H233.943V102.602V100.799Z" fill="#DCDCDC"/>
<path d="M254.285 23.4007H249.199V25.2006H254.285V23.4007Z" fill="#DCDCDC"/>
<path d="M259.37 21.6009H254.284V23.4007H259.37V21.6009Z" fill="#DCDCDC"/>
<path d="M294.972 14.3987H289.886H284.801H279.715H274.626H269.541H264.455H259.37V16.1985V18.0012V19.801H264.455V18.0012H269.541V16.1985H274.626H279.715H284.801V18.0012H289.886V19.801V21.6009V23.4007H294.972V25.2006V27.0004V28.8002V30.6001V32.3999V34.1997V35.9996V37.7994V39.5992V41.3991V43.1989V44.9987V46.7986V48.6013V50.4011V52.2009V54.0008V55.8006V57.6005V59.4003V61.2001V63V64.7998V66.5996V68.3995V70.1993V71.9991V73.799V75.5988V77.4015V79.2013V81.0012V82.801V84.6009V86.4007V88.2005V90.0004H289.886V91.8002V93.6V95.3999V97.1997V98.9995V100.799V102.602V104.399H284.801H279.715V102.602V100.799H274.626V98.9995V97.1997H269.541V95.3999H264.455V97.1997H259.37V98.9995V100.799H254.284V102.602V104.399H249.199H244.114H239.028H233.943V106.199V108.002V109.801V111.601V113.401H239.028H244.114H249.199H254.284H259.37V111.601V109.801V108.002H264.455V109.801V111.601V113.401H269.541H274.626H279.715H284.801H289.886H294.972H300.057V111.601V109.801V108.002V106.199V104.399V102.602V100.799V98.9995V97.1997V95.3999V93.6V91.8002V90.0004V88.2005V86.4007V84.6009V82.801V81.0012V79.2013V77.4015V75.5988V73.799V71.9991V70.1993V68.3995V66.5996V64.7998V63V61.2001V59.4003V57.6005V55.8006V54.0008V52.2009V50.4011V48.6013V46.7986V44.9987V43.1989V41.3991V39.5992V37.7994V35.9996V34.1997V32.3999V30.6001V28.8002V27.0004V25.2006V23.4007V21.6009V19.801V18.0012V16.1985V14.3987H294.972Z" fill="#DCDCDC"/>
<path d="M213.602 12.5989H208.516V14.3988H213.602V12.5989Z" fill="#7D848A"/>
<path d="M208.516 12.5989H203.431V14.3988H208.516V12.5989Z" fill="#858D93"/>
<path d="M350.915 5.39957H345.829V7.1994H350.915V5.39957Z" fill="white"/>
<path d="M10.1707 5.39957H5.08536V7.1994H10.1707V5.39957Z" fill="white"/>
<path d="M345.829 3.5997H340.744V5.39954H345.829V3.5997Z" fill="white"/>
<path d="M320.398 3.5997H315.313V5.39954H320.398V3.5997Z" fill="#252526"/>
<path d="M15.256 3.5997H10.1707V5.39954H15.256V3.5997Z" fill="white"/>
<path d="M356 1.7999H350.915V3.59973H356V1.7999Z" fill="#888F95"/>
<path d="M315.313 1.7999H310.228V3.59973H315.313V1.7999Z" fill="#858D93"/>
<path d="M45.7724 1.7999H40.6871V3.59973H45.7724V1.7999Z" fill="#858C92"/>
<path d="M325.484 100.799V98.9996V97.1998V95.3999V93.6001V91.8003V90.0004V88.2006V86.4008V84.6009V82.8011V81.0013V79.2014V77.4016V75.5989V73.7991V71.9992V70.1994V68.3995V66.5997V64.7999V63V61.2002V59.4004V57.6005V55.8007V54.0009V52.201V50.4012V48.6013V46.7987V44.9988V43.199V41.3991V39.5993V37.7995V35.9996V34.1998V32.4V30.6001V28.8003V27.0005V25.2006V23.4008V21.601V19.8011V18.0013V16.1986V14.3988V12.5989V10.7991V8.99924V7.19941V5.39957V3.59973V1.7999H320.398V3.59973V5.39957V7.19941H315.313H310.228V5.39957V3.59973H305.142V5.39957V7.19941V8.99924V10.7991V12.5989V14.3988V16.1986V18.0013V19.8011V21.601V23.4008V25.2006V27.0005V28.8003V30.6001V32.4V34.1998V35.9996V37.7995V39.5993V41.3991V43.199V44.9988V46.7987V48.6013V50.4012V52.201V54.0009V55.8007V57.6005V59.4004V61.2002V63V64.7999V66.5997V68.3995V70.1994V71.9992V73.7991V75.5989V77.4016V79.2014V81.0013V82.8011V84.6009V86.4008V88.2006V90.0004V91.8003V93.6001V95.3999V97.1998V98.9996V100.799V102.602V104.399V106.199V108.002V109.801V111.601V113.401V115.201V117.001V118.801V120.601V122.4H310.228V124.2H315.313H320.398H325.484V122.4H330.569V120.601V118.801V117.001V115.201V113.401V111.601V109.801V108.002V106.199V104.399V102.602V100.799H325.484Z" fill="#DCDCDC"/>
<path d="M45.7724 5.39957V7.19941H40.687H35.5974V5.39957V3.59973V1.7999H30.5121V3.59973V5.39957V7.19941V8.99924V10.7991V12.5989V14.3988V16.1986V18.0013V19.8011V21.601V23.4008V25.2006V27.0005V28.8003V30.6001V32.4V34.1998V35.9996V37.7995V39.5993V41.3992V43.199V44.9988V46.7987V48.6014V50.4012V52.201V54.0009V55.8007V57.6005V59.4004V61.2002V63V64.7999V66.5997V68.3996V70.1994V71.9992V73.7991V75.5989V77.4016V79.2014V81.0013V82.8011V84.6009V86.4008V88.2006V90.0004V91.8003V93.6001V95.3999V97.1998V98.9996V100.799H25.4267V102.602V104.399V106.199V108.002V109.801V111.601V113.401V115.201V117.001V118.801V120.601V122.4H30.5121V124.2H35.5974H40.687H45.7724V122.4H50.8577V120.601V118.801V117.001V115.201V113.401V111.601V109.801V108.002V106.199V104.399V102.602V100.799V98.9996V97.1998V95.3999V93.6001V91.8003V90.0004V88.2006V86.4008V84.6009V82.8011V81.0013V79.2014V77.4016V75.5989V73.7991V71.9992V70.1994V68.3996V66.5997V64.7999V63V61.2002V59.4004V57.6005V55.8007V54.0009V52.201V50.4012V48.6014V46.7987V44.9988V43.199V41.3992V39.5993V37.7995V35.9996V34.1998V32.4V30.6001V28.8003V27.0005V25.2006V23.4008V21.601V19.8011V18.0013V16.1986V14.3988V12.5989V10.7991V8.99924V7.19941V5.39957V3.59973H45.7724V5.39957Z" fill="#DCDCDC"/>
<path d="M345.829 7.19941V5.39957H340.744V3.59973V1.7999H335.659V3.59973V5.39957H330.569V7.19941H325.484V8.99924V10.7991V12.5989V14.3988V16.1986V18.0013V19.8011V21.601V23.4008V25.2006V27.0005V28.8003V30.6001V32.4V34.1998V35.9996V37.7995V39.5993V41.3992V43.199V44.9988V46.7987V48.6014V50.4012V52.201V54.0009V55.8007V57.6005V59.4004V61.2002V63V64.7999V66.5997V68.3996V70.1994V71.9992V73.7991V75.5989V77.4016V79.2014V81.0013V82.8011V84.6009V86.4008V88.2006V90.0004V91.8003V93.6001V95.3999V97.1998V98.9996V100.799H330.569V102.602V104.399V106.199V108.002V109.801V111.601V113.401V115.201H335.659V117.001V118.801H340.744V117.001V115.201H345.829V117.001V118.801V120.601V122.4H350.915V120.601V118.801V117.001V115.201V113.401V111.601V109.801V108.002V106.199V104.399V102.602V100.799V98.9996V97.1998V95.3999V93.6001V91.8003V90.0004V88.2006V86.4008V84.6009V82.8011V81.0013V79.2014V77.4016V75.5989V73.7991V71.9992V70.1994V68.3996V66.5997V64.7999V63V61.2002V59.4004V57.6005V55.8007V54.0009V52.201V50.4012V48.6014V46.7987V44.9988V43.199V41.3992V39.5993V37.7995V35.9996V34.1998V32.4V30.6001V28.8003V27.0005V25.2006V23.4008V21.601V19.8011V18.0013V16.1986V14.3988V12.5989V10.7991V8.99924V7.19941H345.829Z" fill="white"/>
<path d="M25.4267 5.39957H20.3414V3.59973V1.7999H15.2561V3.59973V5.39957H10.1707V7.19941H5.08536V8.99924V10.7991V12.5989V14.3988V16.1986V18.0013V19.8011V21.601V23.4008V25.2006V27.0005V28.8003V30.6001V32.4V34.1998V35.9996V37.7995V39.5993V41.3992V43.199V44.9988V46.7987V48.6014V50.4012V52.201V54.0009V55.8007V57.6005V59.4004V61.2002V63V64.7999V66.5997V68.3996V70.1994V71.9992V73.7991V75.5989V77.4016V79.2014V81.0013V82.8011V84.6009V86.4008V88.2006V90.0004V91.8003V93.6001V95.3999V97.1998V98.9996V100.799V102.602V104.399V106.199V108.002V109.801V111.601V113.401V115.201V117.001V118.801V120.601V122.4H10.1707V120.601V118.801V117.001V115.201H15.2561V117.001V118.801H20.3414V117.001V115.201H25.4267V113.401V111.601V109.801V108.002V106.199V104.399V102.602V100.799H30.5121V98.9996V97.1998V95.3999V93.6001V91.8003V90.0004V88.2006V86.4008V84.6009V82.8011V81.0013V79.2014V77.4016V75.5989V73.7991V71.9992V70.1994V68.3996V66.5997V64.7999V63V61.2002V59.4004V57.6005V55.8007V54.0009V52.201V50.4012V48.6014V46.7987V44.9988V43.199V41.3992V39.5993V37.7995V35.9996V34.1998V32.4V30.6001V28.8003V27.0005V25.2006V23.4008V21.601V19.8011V18.0013V16.1986V14.3988V12.5989V10.7991V8.99924V7.19941H25.4267V5.39957Z" fill="white"/>
<path d="M5.08535 1.7999H0V3.59973H5.08535V1.7999Z" fill="#878E94"/>
<path d="M340.744 3.05176e-05H335.659V1.79987H340.744V3.05176e-05Z" fill="#8E959B"/>
<path d="M320.398 3.05176e-05H315.313V1.79987H320.398V3.05176e-05Z" fill="#858D93"/>
<path d="M40.6828 3.05176e-05H35.5974V1.79987H40.6828V3.05176e-05Z" fill="#858D93"/>
<path d="M106.801 111.601H101.716V113.401H106.801V111.601Z" fill="black"/>
<path d="M335.659 115.201H330.569V117.001V118.801H335.659V117.001V115.201Z" fill="black"/>
<path d="M45.7724 124.2H40.6871V126H45.7724V124.2Z" fill="black"/>
<path d="M71.1992 111.601H66.1138V113.401H71.1992V111.601Z" fill="black"/>
<path d="M106.801 111.601V109.801H101.716V108.002H96.6302V109.801V111.601H101.716H106.801Z" fill="black"/>
<path d="M233.943 108.002V106.199V104.399H228.858V106.199V108.002V109.802H233.943V108.002Z" fill="black"/>
<path d="M223.772 14.3988H228.858H233.943H239.028H244.114V12.5989H239.028H233.943H228.858H223.772H218.687H213.602V14.3988H218.687H223.772Z" fill="black"/>
<path d="M320.398 124.2H315.313H310.228V126H315.313H320.398H325.484H330.569V124.2H325.484H320.398Z" fill="black"/>
<path d="M25.4267 124.2V126H30.5121H35.5974V124.2H30.5121H25.4267Z" fill="black"/>
<path d="M350.915 122.4H345.829V124.2H350.915V122.4Z" fill="black"/>
<path d="M10.1707 122.4H5.08536V124.2H10.1707V122.4Z" fill="black"/>
<path d="M305.142 122.4V120.601V118.801V117.001V115.201V113.401V111.601V109.801V108.002V106.199V104.399V102.602V100.799V98.9996V97.1998V95.3999V93.6001V91.8003V90.0004V88.2006V86.4008V84.6009V82.8011V81.0013V79.2014V77.4016V75.5989V73.7991V71.9992V70.1994V68.3996V66.5997V64.7999V63V61.2002V59.4004V57.6005V55.8007V54.0009V52.201V50.4012V48.6014V46.7987V44.9988V43.199V41.3992V39.5993V37.7995V35.9996V34.1998V32.4V30.6001V28.8003V27.0005V25.2006V23.4008V21.601V19.8011V18.0013V16.1986V14.3988V12.5989V10.7991V8.99924V7.19941V5.39957V3.59973H310.228V1.7999H305.142H300.057V3.59973V5.39957V7.19941V8.99924V10.7991V12.5989H294.972H289.886H284.801H279.716H274.626H269.541H264.455H259.37H254.284V14.3988V16.1986V18.0013H259.37V16.1986V14.3988H264.455H269.541H274.626H279.716H284.801H289.886H294.972H300.057V16.1986V18.0013V19.8011V21.601V23.4008V25.2006V27.0005V28.8003V30.6001V32.4V34.1998V35.9996V37.7995V39.5993V41.3992V43.199V44.9988V46.7987V48.6014V50.4012V52.201V54.0009V55.8007V57.6005V59.4004V61.2002V63V64.7999V66.5997V68.3996V70.1994V71.9992V73.7991V75.5989V77.4016V79.2014V81.0013V82.8011V84.6009V86.4008V88.2006V90.0004V91.8003V93.6001V95.3999V97.1998V98.9996V100.799V102.602V104.399V106.199V108.002V109.801V111.601V113.401H294.972H289.886H284.801H279.716H274.626H269.541H264.455V115.201H269.541H274.626H279.716H284.801H289.886H294.972H300.057V117.001V118.801V120.601V122.4V124.2H305.142H310.228V122.4H305.142Z" fill="black"/>
<path d="M345.829 118.801V117.001V115.201H340.744V117.001V118.801H335.659V120.6V122.4H340.744H345.829V120.6V118.801Z" fill="black"/>
<path d="M5.08535 118.801V117.001V115.201V113.401V111.601V109.801V108.002V106.199V104.399V102.602V100.799V98.9996V97.1997V95.3999V93.6001V91.8002V90.0004V88.2006V86.4007V84.6009V82.8011V81.0012V79.2014V77.4015V75.5989V73.799V71.9992V70.1994V68.3995V66.5997V64.7998V63V61.2002V59.4003V57.6005V55.8007V54.0008V52.201V50.4012V48.6013V46.7986V44.9988V43.199V41.3991V39.5993V37.7994V35.9996V34.1998V32.3999V30.6001V28.8003V27.0004V25.2006V23.4008V21.6009H0V23.4008V25.2006V27.0004V28.8003V30.6001V32.3999V34.1998V35.9996V37.7994V39.5993V41.3991V43.199V44.9988V46.7986V48.6013V50.4012V52.201V54.0008V55.8007V57.6005V59.4003V61.2002V63V64.7998V66.5997V68.3995V70.1994V71.9992V73.799V75.5989V77.4015V79.2014V81.0012V82.8011V84.6009V86.4007V88.2006V90.0004V91.8002V93.6001V95.3999V97.1997V98.9996V100.799V102.602V104.399V106.199V108.002V109.801V111.601V113.401V115.201V117.001V118.801V120.6V122.4H5.08535V120.6V118.801Z" fill="black"/>
<path d="M15.256 117.001V115.201H10.1707V117.001V118.801V120.6V122.4H15.256H20.3414V120.6V118.801H15.256V117.001Z" fill="black"/>
<path d="M25.4267 117.001V115.201H20.3414V117.001V118.801H25.4267V117.001Z" fill="black"/>
<path d="M249.199 113.401H244.114H239.028H233.943V115.201H239.028H244.114H249.199H254.284H259.37V113.401H254.284H249.199Z" fill="black"/>
<path d="M218.687 113.401H213.602H208.516H203.431H198.341H193.256H188.171H183.085H178V115.201H183.085H188.171H193.256H198.341H203.431H208.516H213.602H218.687H223.772H228.858V113.401H223.772H218.687Z" fill="black"/>
<path d="M86.4552 113.401H81.3698H76.2845V115.201H81.3698H86.4552H91.5405H96.6302V113.401H91.5405H86.4552Z" fill="black"/>
<path d="M55.9431 113.401V111.601V109.801V108.002V106.199V104.399V102.602V100.799V98.9996V97.1998V95.3999V93.6001V91.8003V90.0004V88.2006V86.4007V84.6009V82.8011V81.0012V79.2014V77.4016V75.5989V73.799V71.9992V70.1994V68.3995V66.5997V64.7999V63V61.2002V59.4003V57.6005V55.8007V54.0008V52.201V50.4012V48.6013V46.7986H50.8578V48.6013V50.4012V52.201V54.0008V55.8007V57.6005V59.4003V61.2002V63V64.7999V66.5997V68.3995V70.1994V71.9992V73.799V75.5989V77.4016V79.2014V81.0012V82.8011V84.6009V86.4007V88.2006V90.0004V91.8003V93.6001V95.3999V97.1998V98.9996V100.799V102.602V104.399V106.199V108.002V109.801V111.601V113.401V115.201V117.001V118.801V120.6V122.4H45.7724V124.2H50.8578H55.9431V122.4V120.6V118.801V117.001V115.201H61.0284H66.1138V113.401H61.0284H55.9431Z" fill="black"/>
<path d="M264.455 109.801V108.002H259.37V109.801V111.601V113.401H264.455V111.601V109.801Z" fill="black"/>
<path d="M178 109.801V108.002H172.915V109.801H167.829V111.601V113.401H162.744H157.659H152.569H147.484H142.398H137.313H132.228H127.142H122.057H116.972H111.886H106.801H101.716V115.201H106.801H111.886H116.972H122.057H127.142H132.228H137.313H142.398H147.484H152.569H157.659H162.744H167.829H172.915V113.401H178V111.601V109.801Z" fill="black"/>
<path d="M71.1992 108.002H66.1138V109.801H71.1992V108.002Z" fill="black"/>
<path d="M76.2845 106.199V104.399V102.602H71.1992V104.399V106.199V108.002H76.2845V106.199Z" fill="black"/>
<path d="M350.915 25.2006V27.0004V28.8003V30.6001V32.3999V34.1998V35.9996V37.7995V39.5993V41.3991V43.199V44.9988V46.7986V48.6013V50.4012V52.201V54.0008V55.8007V57.6005V59.4003V61.2002V63V64.7999V66.5997V68.3995V70.1994V71.9992V73.799V75.5989V77.4016V79.2014V81.0012V82.8011V84.6009V86.4007V88.2006V90.0004V91.8003V93.6001V95.3999V97.1998V98.9996V100.799V102.602V104.399V106.199V108.002V109.801V111.601V113.401V115.201V117.001V118.801V120.6V122.4H356V120.6V118.801V117.001V115.201V113.401V111.601V109.801V108.002V106.199V104.399V102.602V100.799V98.9996V97.1998V95.3999V93.6001V91.8003V90.0004V88.2006V86.4007V84.6009V82.8011V81.0012V79.2014V77.4016V75.5989V73.799V71.9992V70.1994V68.3995V66.5997V64.7999V63V61.2002V59.4003V57.6005V55.8007V54.0008V52.201V50.4012V48.6013V46.7986V44.9988V43.199V41.3991V39.5993V37.7995V35.9996V34.1998V32.3999V30.6001V28.8003V27.0004V25.2006V23.4008H350.915V25.2006Z" fill="black"/>
<path d="M249.199 19.8011V21.601H254.284V19.8011V18.0013H249.199V19.8011Z" fill="black"/>
<path d="M5.08535 18.0013V16.1986V14.3988V12.5989V10.7991V8.99924V7.19941V5.39957H10.1707V3.59973H15.256V1.7999H10.1707H5.08535V3.59973H0V5.39957V7.19941V8.99924V10.7991V12.5989V14.3988V16.1986V18.0013V19.8011H5.08535V18.0013Z" fill="black"/>
<path d="M249.199 14.3987H244.114V16.1985H249.199V14.3987Z" fill="black"/>
<path d="M101.716 14.3988H106.801H111.886H116.972H122.057H127.142H132.228H137.313H142.398H147.484H152.569H157.659H162.744H167.829H172.915H178H183.085H188.171H193.256H198.341H203.431V16.1986H208.516V18.0013H213.602V16.1986V14.3988H208.516H203.431V12.5989H198.341H193.256H188.171H183.085H178H172.915H167.829H162.744H157.659H152.569H147.484H142.398H137.313H132.228H127.142H122.057H116.972H111.886H106.801H101.716H96.6302V14.3988V16.1986H101.716V14.3988Z" fill="black"/>
<path d="M310.228 7.19937H315.313H320.398V5.39954H315.313V3.5997H310.228V5.39954V7.19937Z" fill="black"/>
<path d="M50.8578 5.39957V7.19941V8.99924V10.7991V12.5989V14.3988V16.1986V18.0013V19.8011V21.601V23.4008V25.2006V27.0005V28.8003V30.6001V32.4V34.1998V35.9996V37.7995V39.5993V41.3992V43.199V44.9988H55.9431V43.199V41.3992V39.5993V37.7995V35.9996V34.1998V32.4V30.6001V28.8003V27.0005V25.2006V23.4008V21.601V19.8011V18.0013V16.1986V14.3988H61.0284V16.1986H66.1138V14.3988H71.1991H76.2845H81.3698H86.4552V16.1986V18.0013V19.8011H91.5405H96.6302V18.0013H91.5405V16.1986V14.3988V12.5989H86.4552H81.3698H76.2845H71.1991H66.1138H61.0284H55.9431V10.7991V8.99924V7.19941V5.39957V3.59973V1.7999H50.8578H45.7724V3.59973H50.8578V5.39957Z" fill="black"/>
<path d="M35.5974 5.39957V7.19941H40.6871H45.7724V5.39957V3.59973H40.6871V1.7999H35.5974V3.59973V5.39957Z" fill="black"/>
<path d="M350.915 3.59973V1.7999H345.829H340.744V3.59973H345.829V5.39957H350.915V7.19941V8.99924V10.7991V12.5989V14.3988V16.1986V18.0013V19.8011V21.601H356V19.8011V18.0013V16.1986V14.3988V12.5989V10.7991V8.99924V7.19941V5.39957V3.59973H350.915Z" fill="black"/>
<path d="M325.484 3.5997V5.39954V7.19938H330.569V5.39954H335.659V3.5997V1.79987V3.05176e-05H330.569H325.484H320.398V1.79987H325.484V3.5997Z" fill="black"/>
<path d="M320.398 1.7999H315.313V3.59973H320.398V1.7999Z" fill="black"/>
<path d="M30.5121 3.05176e-05H25.4267H20.3414V1.79987V3.5997V5.39954H25.4267V7.19938H30.5121V5.39954V3.5997V1.79987H35.5974V3.05176e-05H30.5121Z" fill="black"/>
<path d="M20.3414 3.05176e-05H15.256V1.79987H20.3414V3.05176e-05Z" fill="#8E959B"/>
</g>
<defs>
<clipPath id="clip0_8_1803">
<rect width="356" height="126" fill="white"/>
</clipPath>
</defs>
</svg>
