<svg width="25" height="37" viewBox="0 0 25 37" fill="none" xmlns="http://www.w3.org/2000/svg">
<g clip-path="url(#clip0_13_7679)">
<path d="M6.1 -3.05176e-05H0V6.09997H6.1V-3.05176e-05Z" fill="#E54141"/>
<path d="M6.1 6.09998H0V12.2019H6.1V6.09998Z" fill="#E54141"/>
<path d="M6.1 12.2019H0V18.3019H6.1V12.2019Z" fill="#E54141"/>
<path d="M6.1 18.3H0V24.4H6.1V18.3Z" fill="#E54141"/>
<path d="M6.1 24.4H0V30.5H6.1V24.4Z" fill="#E54141"/>
<path d="M12.2 6.09998H6.09998V12.2019H12.2V6.09998Z" fill="#E54141"/>
<path d="M12.2 12.2019H6.09998V18.3019H12.2V12.2019Z" fill="#E54141"/>
<path d="M12.2 18.3H6.09998V24.4H12.2V18.3Z" fill="#E54141"/>
<path d="M18.3001 12.2019H12.2001V18.3019H18.3001V12.2019Z" fill="#E54141"/>
<path d="M18.2657 24.4H12.2345C12.2154 24.4 12.2001 24.3847 12.2001 24.3655V18.3363C12.2001 18.3172 12.2154 18.3019 12.2345 18.3019H18.2657C18.2848 18.3019 18.3001 18.3172 18.3001 18.3363V24.3655C18.3001 24.3847 18.2848 24.4 18.2657 24.4Z" fill="#E54141"/>
<path d="M24.3656 21.3519H18.3345C18.3153 21.3519 18.3 21.3347 18.3 21.3175V15.2844C18.3 15.2653 18.3153 15.25 18.3345 15.25H24.3656C24.3848 15.25 24.4 15.2653 24.4 15.2844V21.3156C24.4 21.3347 24.3848 21.3519 24.3656 21.3519Z" fill="#E54141"/>
<path d="M12.2 24.4H6.09998V30.5H12.2V24.4Z" fill="#E54141"/>
<path d="M6.1 30.5H0V36.6019H6.1V30.5Z" fill="#E54141"/>
</g>
<defs>
<clipPath id="clip0_13_7679">
<rect width="24.4" height="36.6019" fill="white"/>
</clipPath>
</defs>
</svg>
