<svg width="966" height="627" viewBox="0 0 966 627" fill="none" xmlns="http://www.w3.org/2000/svg">
<g clip-path="url(#clip0_8_1218)">
<path d="M946.043 39.3912H18.5281V589.337H946.043V39.3912Z" fill="white"/>
<path d="M927.036 17.3918H37.3651V607.705H927.036V17.3918Z" fill="white"/>
<path d="M965.317 39.5936H946.363V589.39H965.317V39.5936Z" fill="#050505"/>
<path d="M925.034 0.940002H37.0563V19.8941H925.034V0.940002Z" fill="#050505"/>
<path d="M613.932 627H458.316V608.046H925.183V627H613.932Z" fill="#050505"/>
<path d="M946.043 589.337H927.089V608.291H946.043V589.337Z" fill="#050505"/>
<path d="M946.043 20.4372H927.089V39.3913H946.043V20.4372Z" fill="#050505"/>
<path d="M37.4822 20.4372H18.5281V39.3913H37.4822V20.4372Z" fill="#050505"/>
<path d="M37.4822 588.485H18.5281V607.439H37.4822V588.485Z" fill="#050505"/>
<path d="M496.001 608.046H37.0563V627H496.001V608.046Z" fill="#050505"/>
<path d="M18.9541 37.9963H0V588.708H18.9541V37.9963Z" fill="#050505"/>
</g>
<defs>
<clipPath id="clip0_8_1218">
<rect width="965.317" height="626.06" fill="white" transform="translate(0 0.940002)"/>
</clipPath>
</defs>
</svg>
