<svg width="131" height="47" viewBox="0 0 131 47" fill="none" xmlns="http://www.w3.org/2000/svg">
<g clip-path="url(#clip0_101_95)">
<path d="M94.6603 0H89.4948V5.16559H94.6603V0Z" fill="black"/>
<path d="M99.8259 0H94.6603V5.16559H99.8259V0Z" fill="black"/>
<path d="M104.989 0H99.8238V5.16559H104.989V0Z" fill="black"/>
<path d="M110.155 0H104.989V5.16559H110.155V0Z" fill="black"/>
<path d="M115.321 0H110.155V5.16559H115.321V0Z" fill="black"/>
<path d="M89.4947 5.16559H84.3291V10.3312H89.4947V5.16559Z" fill="black"/>
<path d="M94.6603 5.16559H89.4948V10.3312H94.6603V5.16559Z" fill="#BDDE8A"/>
<path d="M99.8259 5.16559H94.6603V10.3312H99.8259V5.16559Z" fill="#BDDE8A"/>
<path d="M104.989 5.16559H99.8238V10.3312H104.989V5.16559Z" fill="#8EC536"/>
<path d="M110.155 5.16559H104.989V10.3312H110.155V5.16559Z" fill="#6E992A"/>
<path d="M115.321 5.16559H110.155V10.3312H115.321V5.16559Z" fill="#6E992A"/>
<path d="M120.484 5.16559H115.318V10.3312H120.484V5.16559Z" fill="black"/>
<path d="M84.3312 10.3291H79.1656V15.4947H84.3312V10.3291Z" fill="black"/>
<path d="M89.4947 10.3291H84.3291V15.4947H89.4947V10.3291Z" fill="#BDDE8A"/>
<path d="M94.6603 10.3291H89.4948V15.4947H94.6603V10.3291Z" fill="#BDDE8A"/>
<path d="M99.8259 10.3291H94.6603V15.4947H99.8259V10.3291Z" fill="#8EC536"/>
<path d="M104.989 10.3291H99.8238V15.4947H104.989V10.3291Z" fill="#8EC536"/>
<path d="M110.155 10.3291H104.989V15.4947H110.155V10.3291Z" fill="#8EC536"/>
<path d="M115.321 10.3291H110.155V15.4947H115.321V10.3291Z" fill="#6E992A"/>
<path d="M120.484 10.3291H115.318V15.4947H120.484V10.3291Z" fill="#6E992A"/>
<path d="M125.65 10.3291H120.484V15.4947H125.65V10.3291Z" fill="black"/>
<path d="M79.1656 15.4947H74.0001V20.6603H79.1656V15.4947Z" fill="black"/>
<path d="M84.3312 15.4947H79.1656V20.6603H84.3312V15.4947Z" fill="#BDDE8A"/>
<path d="M89.4947 15.4947H84.3291V20.6603H89.4947V15.4947Z" fill="#BDDE8A"/>
<path d="M94.6603 15.4947H89.4948V20.6603H94.6603V15.4947Z" fill="#8EC536"/>
<path d="M99.8259 15.4947H94.6603V20.6603H99.8259V15.4947Z" fill="#8EC536"/>
<path d="M104.989 15.4947H99.8238V20.6603H104.989V15.4947Z" fill="#8EC536"/>
<path d="M110.155 15.4947H104.989V20.6603H110.155V15.4947Z" fill="#8EC536"/>
<path d="M115.321 15.4947H110.155V20.6603H115.321V15.4947Z" fill="#8EC536"/>
<path d="M120.484 15.4947H115.318V20.6603H120.484V15.4947Z" fill="#6E992A"/>
<path d="M125.65 15.4947H120.484V20.6603H125.65V15.4947Z" fill="#6E992A"/>
<path d="M130.815 15.4947H125.65V20.6603H130.815V15.4947Z" fill="black"/>
<path d="M84.3312 20.6603H79.1656V25.8259H84.3312V20.6603Z" fill="black"/>
<path d="M89.4947 20.6603H84.3291V25.8259H89.4947V20.6603Z" fill="#6E992A"/>
<path d="M94.6603 20.6603H89.4948V25.8259H94.6603V20.6603Z" fill="#6E992A"/>
<path d="M99.8259 20.6603H94.6603V25.8259H99.8259V20.6603Z" fill="#6E992A"/>
<path d="M104.989 20.6603H99.8238V25.8259H104.989V20.6603Z" fill="#6E992A"/>
<path d="M110.155 20.6603H104.989V25.8259H110.155V20.6603Z" fill="#6E992A"/>
<path d="M115.321 20.6603H110.155V25.8259H115.321V20.6603Z" fill="#6E992A"/>
<path d="M120.484 20.6603H115.318V25.8259H120.484V20.6603Z" fill="#6E992A"/>
<path d="M125.65 20.6603H120.484V25.8259H125.65V20.6603Z" fill="black"/>
<path d="M89.4947 25.8238H84.3291V30.9894H89.4947V25.8238Z" fill="black"/>
<path d="M94.6603 25.8238H89.4948V30.9894H94.6603V25.8238Z" fill="#6E992A"/>
<path d="M99.8259 25.8238H94.6603V30.9894H99.8259V25.8238Z" fill="#BDDE8A"/>
<path d="M104.989 25.8238H99.8238V30.9894H104.989V25.8238Z" fill="#BDDE8A"/>
<path d="M110.155 25.8238H104.989V30.9894H110.155V25.8238Z" fill="#BDDE8A"/>
<path d="M115.321 25.8238H110.155V30.9894H115.321V25.8238Z" fill="#8EC536"/>
<path d="M120.484 25.8238H115.318V30.9894H120.484V25.8238Z" fill="black"/>
<path d="M94.6603 30.9894H89.4948V36.155H94.6603V30.9894Z" fill="black"/>
<path d="M99.8259 30.9894H94.6603V36.155H99.8259V30.9894Z" fill="#6E992A"/>
<path d="M104.989 30.9894H99.8238V36.155H104.989V30.9894Z" fill="#BDDE8A"/>
<path d="M110.155 30.9894H104.989V36.155H110.155V30.9894Z" fill="#8EC536"/>
<path d="M115.321 30.9894H110.155V36.155H115.321V30.9894Z" fill="black"/>
<path d="M99.8259 36.155H94.6603V41.3206H99.8259V36.155Z" fill="black"/>
<path d="M104.989 36.155H99.8238V41.3206H104.989V36.155Z" fill="#BDDE8A"/>
<path d="M110.155 36.155H104.989V41.3206H110.155V36.155Z" fill="black"/>
<path d="M104.989 41.3185H99.8238V46.4841H104.989V41.3185Z" fill="black"/>
</g>
<g clip-path="url(#clip1_101_95)">
<path d="M20.6603 0H15.4948V5.16559H20.6603V0Z" fill="black"/>
<path d="M25.8259 0H20.6603V5.16559H25.8259V0Z" fill="black"/>
<path d="M30.9894 0H25.8238V5.16559H30.9894V0Z" fill="black"/>
<path d="M36.155 0H30.9894V5.16559H36.155V0Z" fill="black"/>
<path d="M41.3206 0H36.155V5.16559H41.3206V0Z" fill="black"/>
<path d="M15.4947 5.16559H10.3291V10.3312H15.4947V5.16559Z" fill="black"/>
<path d="M20.6603 5.16559H15.4948V10.3312H20.6603V5.16559Z" fill="#BDDE8A"/>
<path d="M25.8259 5.16559H20.6603V10.3312H25.8259V5.16559Z" fill="#BDDE8A"/>
<path d="M30.9894 5.16559H25.8238V10.3312H30.9894V5.16559Z" fill="#8EC536"/>
<path d="M36.155 5.16559H30.9894V10.3312H36.155V5.16559Z" fill="#6E992A"/>
<path d="M41.3206 5.16559H36.155V10.3312H41.3206V5.16559Z" fill="#6E992A"/>
<path d="M46.4841 5.16559H41.3185V10.3312H46.4841V5.16559Z" fill="black"/>
<path d="M10.3312 10.3291H5.16565V15.4947H10.3312V10.3291Z" fill="black"/>
<path d="M15.4947 10.3291H10.3291V15.4947H15.4947V10.3291Z" fill="#BDDE8A"/>
<path d="M20.6603 10.3291H15.4948V15.4947H20.6603V10.3291Z" fill="#BDDE8A"/>
<path d="M25.8259 10.3291H20.6603V15.4947H25.8259V10.3291Z" fill="#8EC536"/>
<path d="M30.9894 10.3291H25.8238V15.4947H30.9894V10.3291Z" fill="#8EC536"/>
<path d="M36.155 10.3291H30.9894V15.4947H36.155V10.3291Z" fill="#8EC536"/>
<path d="M41.3206 10.3291H36.155V15.4947H41.3206V10.3291Z" fill="#6E992A"/>
<path d="M46.4841 10.3291H41.3185V15.4947H46.4841V10.3291Z" fill="#6E992A"/>
<path d="M51.6497 10.3291H46.4841V15.4947H51.6497V10.3291Z" fill="black"/>
<path d="M5.16559 15.4947H0V20.6603H5.16559V15.4947Z" fill="black"/>
<path d="M10.3312 15.4947H5.16565V20.6603H10.3312V15.4947Z" fill="#BDDE8A"/>
<path d="M15.4947 15.4947H10.3291V20.6603H15.4947V15.4947Z" fill="#BDDE8A"/>
<path d="M20.6603 15.4947H15.4948V20.6603H20.6603V15.4947Z" fill="#8EC536"/>
<path d="M25.8259 15.4947H20.6603V20.6603H25.8259V15.4947Z" fill="#8EC536"/>
<path d="M30.9894 15.4947H25.8238V20.6603H30.9894V15.4947Z" fill="#8EC536"/>
<path d="M36.155 15.4947H30.9894V20.6603H36.155V15.4947Z" fill="#8EC536"/>
<path d="M41.3206 15.4947H36.155V20.6603H41.3206V15.4947Z" fill="#8EC536"/>
<path d="M46.4841 15.4947H41.3185V20.6603H46.4841V15.4947Z" fill="#6E992A"/>
<path d="M51.6497 15.4947H46.4841V20.6603H51.6497V15.4947Z" fill="#6E992A"/>
<path d="M56.8153 15.4947H51.6497V20.6603H56.8153V15.4947Z" fill="black"/>
<path d="M10.3312 20.6603H5.16565V25.8259H10.3312V20.6603Z" fill="black"/>
<path d="M15.4947 20.6603H10.3291V25.8259H15.4947V20.6603Z" fill="#6E992A"/>
<path d="M20.6603 20.6603H15.4948V25.8259H20.6603V20.6603Z" fill="#6E992A"/>
<path d="M25.8259 20.6603H20.6603V25.8259H25.8259V20.6603Z" fill="#6E992A"/>
<path d="M30.9894 20.6603H25.8238V25.8259H30.9894V20.6603Z" fill="#6E992A"/>
<path d="M36.155 20.6603H30.9894V25.8259H36.155V20.6603Z" fill="#6E992A"/>
<path d="M41.3206 20.6603H36.155V25.8259H41.3206V20.6603Z" fill="#6E992A"/>
<path d="M46.4841 20.6603H41.3185V25.8259H46.4841V20.6603Z" fill="#6E992A"/>
<path d="M51.6497 20.6603H46.4841V25.8259H51.6497V20.6603Z" fill="black"/>
<path d="M15.4947 25.8238H10.3291V30.9894H15.4947V25.8238Z" fill="black"/>
<path d="M20.6603 25.8238H15.4948V30.9894H20.6603V25.8238Z" fill="#6E992A"/>
<path d="M25.8259 25.8238H20.6603V30.9894H25.8259V25.8238Z" fill="#BDDE8A"/>
<path d="M30.9894 25.8238H25.8238V30.9894H30.9894V25.8238Z" fill="#BDDE8A"/>
<path d="M36.155 25.8238H30.9894V30.9894H36.155V25.8238Z" fill="#BDDE8A"/>
<path d="M41.3206 25.8238H36.155V30.9894H41.3206V25.8238Z" fill="#8EC536"/>
<path d="M46.4841 25.8238H41.3185V30.9894H46.4841V25.8238Z" fill="black"/>
<path d="M20.6603 30.9894H15.4948V36.155H20.6603V30.9894Z" fill="black"/>
<path d="M25.8259 30.9894H20.6603V36.155H25.8259V30.9894Z" fill="#6E992A"/>
<path d="M30.9894 30.9894H25.8238V36.155H30.9894V30.9894Z" fill="#BDDE8A"/>
<path d="M36.155 30.9894H30.9894V36.155H36.155V30.9894Z" fill="#8EC536"/>
<path d="M41.3206 30.9894H36.155V36.155H41.3206V30.9894Z" fill="black"/>
<path d="M25.8259 36.155H20.6603V41.3206H25.8259V36.155Z" fill="black"/>
<path d="M30.9894 36.155H25.8238V41.3206H30.9894V36.155Z" fill="#BDDE8A"/>
<path d="M36.155 36.155H30.9894V41.3206H36.155V36.155Z" fill="black"/>
<path d="M30.9894 41.3185H25.8238V46.4841H30.9894V41.3185Z" fill="black"/>
</g>
<defs>
<clipPath id="clip0_101_95">
<rect width="56.8132" height="46.4841" fill="white" transform="translate(74)"/>
</clipPath>
<clipPath id="clip1_101_95">
<rect width="56.8132" height="46.4841" fill="white"/>
</clipPath>
</defs>
</svg>
